# xmcd
#
# Track frame offsets:
#	150
#	17185
#	28217
#	42374
#	56347
#	65659
#	80824
#	98566
#	112774
#	128616
#	148644
#	162881
#
# Disc length: 2457 seconds
#
# Revision: 1
# Processed by: cddbd v1.5.2PL0 Copyright (c) Steve Scherf et al.
# Submitted via: EasyCDDAExtractor 9.1.3.1
#
DISCID=9b09970c
DTITLE=Grayson Capps - Wail and Ride
DYEAR=2006
DGENRE=Blues
TTITLE0=Wail and Ride
TTITLE1=Jukebox
TTITLE2=New Orleans Waltz
TTITLE3=Daddy's Eyes
TTITLE4=Give It To Me
TTITLE5=Poison
TTITLE6=Mermaid
TTITLE7=Broomy
TTITLE8=Junkman
TTITLE9=Ed Lee
TTITLE10=Cry Me One Tear
TTITLE11=Waterhole Branch
EXTD=YEAR: 2006
EXTT0=
EXTT1=
EXTT2=
EXTT3=
EXTT4=
EXTT5=
EXTT6=
EXTT7=
EXTT8=
EXTT9=
EXTT10=
EXTT11=
PLAYORDER=
